<?xml version="1.0" encoding="UTF-8"?>
<svg width="24" height="24" viewBox="0 0 24 24" fill="none" xmlns="http://www.w3.org/2000/svg">
    <!-- Head -->
    <path d="M9 6C9 6 8 7 8 9C8 11 9 13 10 13.5C11 14 12 14 13 13.5" stroke="currentColor" stroke-width="1.5" stroke-linecap="round"/>
    <!-- Hair -->
    <path d="M8 8C8 8 9 6 11 6C13 6 13 7 13 7" stroke="currentColor" stroke-width="1.5" stroke-linecap="round"/>
    <!-- Face -->
    <path d="M9 9C9 9 10 8 11 8" stroke="currentColor" stroke-width="1.5" stroke-linecap="round"/>
    <!-- Hands cupped around mouth -->
    <path d="M8 11C8 11 9 12 10 12C11 12 12 11 12 11" stroke="currentColor" stroke-width="1.5" stroke-linecap="round"/>
    <path d="M7 10C7 10 8 13 10 13" stroke="currentColor" stroke-width="1.5" stroke-linecap="round"/>
    <path d="M13 10C13 10 12 13 10 13" stroke="currentColor" stroke-width="1.5" stroke-linecap="round"/>
    <!-- Sound waves -->
    <path d="M13 11L15 10M13 11L15 11M13 11L15 12" stroke="currentColor" stroke-width="1" stroke-linecap="round"/>
    <path d="M15 10L17 9M15 11L17 11M15 12L17 13" stroke="currentColor" stroke-width="1" stroke-linecap="round"/>
    <path d="M17 9L19 8M17 11L19 11M17 13L19 14" stroke="currentColor" stroke-width="1" stroke-linecap="round"/>
</svg> 